<svg xmlns="http://www.w3.org/2000/svg" xmlns:xlink="http://www.w3.org/1999/xlink" width="1080" zoomAndPan="magnify" viewBox="0 0 810 809.999993" height="1080" preserveAspectRatio="xMidYMid meet" version="1.2"><defs><clipPath id="e6bd824dcf"><path d="M 74 8.101562 L 763 8.101562 L 763 801.601562 L 74 801.601562 Z M 74 8.101562 "/></clipPath></defs><g id="c0e07da3c3"><path style=" stroke:none;fill-rule:nonzero;fill:#4f7cff;fill-opacity:1;" d="M 758.273438 600.960938 C 534.75 471.910156 534.75 337.59375 758.273438 208.542969 C 534.75 337.59375 418.429688 270.433594 418.429688 12.332031 C 418.429688 270.433594 302.105469 337.59375 78.582031 208.542969 C 302.105469 337.59375 302.105469 471.910156 78.582031 600.960938 C 302.105469 471.910156 418.429688 539.070312 418.429688 797.171875 C 418.429688 539.070312 534.75 471.910156 758.273438 600.960938 Z M 214.523438 522.476562 C 348.636719 445.046875 348.636719 364.457031 214.523438 287.023438 C 348.636719 364.457031 418.429688 324.160156 418.429688 169.300781 C 418.429688 324.160156 488.222656 364.457031 622.335938 287.023438 C 488.222656 364.457031 488.222656 445.046875 622.335938 522.476562 C 488.222656 445.046875 418.429688 485.339844 418.429688 640.203125 C 418.429688 485.339844 348.636719 445.046875 214.523438 522.476562 Z M 214.523438 522.476562 "/><g clip-rule="nonzero" clip-path="url(#e6bd824dcf)"><path style=" stroke:none;fill-rule:nonzero;fill:#4f7cff;fill-opacity:1;" d="M 418.429688 801.386719 C 418.152344 801.386719 417.878906 801.359375 417.605469 801.304688 C 417.335938 801.25 417.070312 801.171875 416.816406 801.066406 C 416.558594 800.957031 416.316406 800.828125 416.085938 800.675781 C 415.855469 800.519531 415.644531 800.347656 415.449219 800.152344 C 415.253906 799.957031 415.078125 799.742188 414.921875 799.511719 C 414.769531 799.28125 414.640625 799.039062 414.535156 798.785156 C 414.429688 798.527344 414.347656 798.265625 414.292969 797.992188 C 414.242188 797.722656 414.214844 797.445312 414.214844 797.171875 C 414.214844 670.335938 385.953125 589.710938 330.21875 557.535156 C 274.484375 525.359375 190.53125 541.191406 80.691406 604.609375 C 80.449219 604.75 80.199219 604.863281 79.9375 604.953125 C 79.675781 605.042969 79.40625 605.105469 79.132812 605.140625 C 78.859375 605.179688 78.582031 605.1875 78.304688 605.167969 C 78.03125 605.152344 77.757812 605.105469 77.488281 605.035156 C 77.222656 604.964844 76.964844 604.867188 76.714844 604.746094 C 76.46875 604.621094 76.234375 604.476562 76.011719 604.308594 C 75.792969 604.140625 75.59375 603.949219 75.410156 603.742188 C 75.226562 603.535156 75.066406 603.3125 74.929688 603.070312 C 74.789062 602.832031 74.675781 602.578125 74.585938 602.316406 C 74.496094 602.054688 74.433594 601.785156 74.398438 601.511719 C 74.363281 601.238281 74.355469 600.960938 74.371094 600.683594 C 74.390625 600.410156 74.4375 600.136719 74.507812 599.871094 C 74.578125 599.601562 74.675781 599.34375 74.800781 599.097656 C 74.921875 598.847656 75.066406 598.613281 75.238281 598.394531 C 75.40625 598.175781 75.59375 597.972656 75.804688 597.792969 C 76.011719 597.609375 76.234375 597.449219 76.476562 597.308594 C 186.316406 533.894531 242.011719 469.105469 242.011719 404.75 C 242.011719 340.394531 186.316406 275.605469 76.476562 212.191406 C 76.234375 212.054688 76.011719 211.894531 75.804688 211.710938 C 75.597656 211.527344 75.40625 211.328125 75.238281 211.105469 C 75.070312 210.886719 74.925781 210.652344 74.800781 210.40625 C 74.679688 210.15625 74.582031 209.898438 74.511719 209.632812 C 74.441406 209.363281 74.394531 209.09375 74.375 208.816406 C 74.359375 208.539062 74.367188 208.265625 74.402344 207.992188 C 74.441406 207.714844 74.503906 207.449219 74.589844 207.1875 C 74.679688 206.925781 74.792969 206.671875 74.933594 206.433594 C 75.070312 206.195312 75.230469 205.96875 75.414062 205.761719 C 75.597656 205.554688 75.796875 205.367188 76.015625 205.195312 C 76.238281 205.027344 76.46875 204.882812 76.71875 204.761719 C 76.96875 204.636719 77.226562 204.542969 77.492188 204.46875 C 77.757812 204.398438 78.03125 204.351562 78.308594 204.335938 C 78.582031 204.316406 78.859375 204.324219 79.132812 204.363281 C 79.40625 204.398438 79.675781 204.460938 79.9375 204.550781 C 80.199219 204.636719 80.449219 204.753906 80.691406 204.890625 C 190.53125 268.308594 274.484375 284.144531 330.21875 251.96875 C 385.953125 219.789062 414.214844 139.164062 414.214844 12.332031 C 414.214844 12.054688 414.242188 11.78125 414.292969 11.507812 C 414.347656 11.238281 414.429688 10.972656 414.535156 10.71875 C 414.640625 10.460938 414.769531 10.21875 414.921875 9.988281 C 415.078125 9.757812 415.253906 9.546875 415.449219 9.351562 C 415.644531 9.15625 415.855469 8.980469 416.085938 8.828125 C 416.316406 8.671875 416.558594 8.542969 416.816406 8.4375 C 417.070312 8.332031 417.335938 8.25 417.605469 8.199219 C 417.878906 8.144531 418.152344 8.117188 418.429688 8.117188 C 418.707031 8.117188 418.980469 8.144531 419.25 8.199219 C 419.523438 8.25 419.785156 8.332031 420.042969 8.4375 C 420.296875 8.542969 420.539062 8.671875 420.769531 8.828125 C 421 8.980469 421.214844 9.15625 421.410156 9.351562 C 421.605469 9.546875 421.78125 9.757812 421.933594 9.988281 C 422.085938 10.21875 422.21875 10.460938 422.324219 10.71875 C 422.429688 10.972656 422.507812 11.238281 422.5625 11.507812 C 422.617188 11.78125 422.644531 12.054688 422.644531 12.332031 C 422.644531 139.164062 450.902344 219.789062 506.636719 251.96875 C 562.371094 284.144531 646.324219 268.308594 756.164062 204.890625 C 756.40625 204.753906 756.65625 204.636719 756.917969 204.550781 C 757.179688 204.460938 757.449219 204.398438 757.722656 204.363281 C 757.996094 204.324219 758.273438 204.316406 758.550781 204.335938 C 758.824219 204.351562 759.097656 204.398438 759.363281 204.46875 C 759.632812 204.542969 759.890625 204.636719 760.136719 204.761719 C 760.386719 204.882812 760.621094 205.027344 760.839844 205.195312 C 761.058594 205.367188 761.261719 205.554688 761.441406 205.761719 C 761.625 205.96875 761.785156 206.195312 761.921875 206.433594 C 762.0625 206.671875 762.175781 206.925781 762.265625 207.1875 C 762.355469 207.449219 762.417969 207.714844 762.453125 207.992188 C 762.488281 208.265625 762.496094 208.539062 762.480469 208.816406 C 762.460938 209.09375 762.417969 209.363281 762.34375 209.632812 C 762.273438 209.898438 762.175781 210.15625 762.054688 210.40625 C 761.929688 210.652344 761.785156 210.886719 761.617188 211.105469 C 761.449219 211.328125 761.261719 211.527344 761.050781 211.710938 C 760.84375 211.894531 760.621094 212.054688 760.378906 212.191406 C 650.539062 275.605469 594.847656 340.394531 594.847656 404.75 C 594.847656 469.105469 650.539062 533.894531 760.378906 597.308594 C 760.621094 597.449219 760.84375 597.609375 761.050781 597.792969 C 761.261719 597.972656 761.449219 598.175781 761.617188 598.394531 C 761.785156 598.613281 761.929688 598.847656 762.054688 599.097656 C 762.175781 599.34375 762.273438 599.601562 762.34375 599.871094 C 762.417969 600.136719 762.460938 600.410156 762.480469 600.683594 C 762.496094 600.960938 762.488281 601.238281 762.453125 601.511719 C 762.417969 601.785156 762.355469 602.054688 762.265625 602.316406 C 762.175781 602.578125 762.0625 602.828125 761.921875 603.066406 C 761.785156 603.308594 761.625 603.53125 761.441406 603.738281 C 761.261719 603.949219 761.058594 604.136719 760.839844 604.304688 C 760.621094 604.472656 760.386719 604.617188 760.136719 604.742188 C 759.890625 604.863281 759.632812 604.960938 759.363281 605.03125 C 759.097656 605.105469 758.824219 605.148438 758.546875 605.167969 C 758.273438 605.183594 757.996094 605.175781 757.722656 605.140625 C 757.449219 605.105469 757.179688 605.039062 756.917969 604.953125 C 756.65625 604.863281 756.40625 604.75 756.164062 604.609375 C 646.324219 541.195312 562.371094 525.355469 506.636719 557.535156 C 450.902344 589.710938 422.644531 670.335938 422.644531 797.171875 C 422.644531 797.445312 422.617188 797.722656 422.5625 797.992188 C 422.507812 798.265625 422.429688 798.527344 422.324219 798.785156 C 422.21875 799.039062 422.085938 799.28125 421.933594 799.511719 C 421.78125 799.742188 421.605469 799.957031 421.410156 800.152344 C 421.214844 800.347656 421 800.519531 420.769531 800.675781 C 420.539062 800.828125 420.296875 800.957031 420.042969 801.066406 C 419.785156 801.171875 419.523438 801.25 419.25 801.304688 C 418.980469 801.359375 418.707031 801.386719 418.429688 801.386719 Z M 264.804688 532.957031 C 291.242188 532.957031 314.449219 538.714844 334.433594 550.234375 C 380.214844 576.664062 408.347656 633.261719 418.429688 718.894531 C 428.511719 633.261719 456.640625 576.664062 502.421875 550.234375 C 548.203125 523.804688 611.28125 527.738281 690.484375 561.824219 C 621.363281 510.273438 586.417969 457.613281 586.417969 404.75 C 586.417969 351.882812 621.355469 299.230469 690.488281 247.675781 C 645.808594 266.90625 606.328125 276.53125 572.050781 276.542969 C 545.617188 276.542969 522.40625 270.785156 502.421875 259.269531 C 456.640625 232.835938 428.511719 176.242188 418.429688 90.605469 C 408.347656 176.242188 380.214844 232.835938 334.433594 259.269531 C 288.65625 285.699219 225.574219 281.765625 146.371094 247.679688 C 215.492188 299.226562 250.441406 351.886719 250.441406 404.75 C 250.441406 457.617188 215.5 510.269531 146.367188 561.824219 C 191.050781 542.59375 230.527344 532.972656 264.804688 532.957031 Z M 418.429688 644.417969 C 418.152344 644.417969 417.878906 644.390625 417.605469 644.335938 C 417.335938 644.28125 417.070312 644.203125 416.816406 644.097656 C 416.558594 643.992188 416.316406 643.859375 416.085938 643.707031 C 415.855469 643.554688 415.644531 643.378906 415.449219 643.183594 C 415.253906 642.988281 415.078125 642.773438 414.921875 642.542969 C 414.769531 642.3125 414.640625 642.070312 414.535156 641.816406 C 414.429688 641.558594 414.347656 641.296875 414.292969 641.023438 C 414.242188 640.753906 414.214844 640.480469 414.214844 640.203125 C 414.214844 564.75 397.539062 516.867188 364.660156 497.878906 C 331.777344 478.898438 281.972656 488.398438 216.628906 526.128906 C 216.390625 526.265625 216.140625 526.378906 215.875 526.46875 C 215.613281 526.558594 215.347656 526.621094 215.070312 526.65625 C 214.796875 526.691406 214.523438 526.703125 214.246094 526.683594 C 213.96875 526.664062 213.699219 526.621094 213.429688 526.546875 C 213.164062 526.476562 212.90625 526.378906 212.65625 526.257812 C 212.410156 526.136719 212.175781 525.988281 211.957031 525.820312 C 211.734375 525.652344 211.535156 525.464844 211.351562 525.257812 C 211.171875 525.046875 211.011719 524.824219 210.871094 524.585938 C 210.734375 524.34375 210.621094 524.09375 210.53125 523.832031 C 210.441406 523.570312 210.378906 523.300781 210.34375 523.027344 C 210.304688 522.753906 210.296875 522.476562 210.316406 522.203125 C 210.332031 521.925781 210.378906 521.652344 210.449219 521.386719 C 210.523438 521.117188 210.617188 520.859375 210.742188 520.613281 C 210.863281 520.363281 211.007812 520.128906 211.179688 519.910156 C 211.347656 519.691406 211.535156 519.492188 211.742188 519.308594 C 211.949219 519.125 212.175781 518.964844 212.414062 518.828125 C 277.757812 481.101562 310.890625 442.71875 310.890625 404.75 C 310.890625 366.78125 277.757812 328.402344 212.414062 290.675781 C 212.175781 290.539062 211.949219 290.378906 211.742188 290.195312 C 211.535156 290.011719 211.347656 289.8125 211.179688 289.589844 C 211.007812 289.371094 210.863281 289.136719 210.742188 288.890625 C 210.617188 288.640625 210.523438 288.382812 210.449219 288.117188 C 210.378906 287.847656 210.332031 287.578125 210.316406 287.300781 C 210.296875 287.023438 210.304688 286.75 210.34375 286.476562 C 210.378906 286.199219 210.441406 285.933594 210.53125 285.671875 C 210.621094 285.410156 210.734375 285.15625 210.871094 284.917969 C 211.011719 284.679688 211.171875 284.453125 211.351562 284.246094 C 211.535156 284.039062 211.734375 283.851562 211.957031 283.679688 C 212.175781 283.511719 212.410156 283.367188 212.65625 283.246094 C 212.90625 283.121094 213.164062 283.027344 213.429688 282.953125 C 213.699219 282.882812 213.96875 282.835938 214.246094 282.820312 C 214.523438 282.800781 214.796875 282.808594 215.070312 282.847656 C 215.347656 282.882812 215.613281 282.945312 215.875 283.035156 C 216.140625 283.125 216.390625 283.238281 216.628906 283.375 C 281.972656 321.101562 331.777344 330.601562 364.660156 311.621094 C 397.539062 292.636719 414.214844 244.753906 414.214844 169.300781 C 414.214844 169.023438 414.242188 168.75 414.292969 168.476562 C 414.347656 168.207031 414.429688 167.941406 414.535156 167.6875 C 414.640625 167.429688 414.769531 167.1875 414.921875 166.957031 C 415.078125 166.726562 415.253906 166.515625 415.449219 166.320312 C 415.644531 166.125 415.855469 165.949219 416.085938 165.792969 C 416.316406 165.640625 416.558594 165.511719 416.816406 165.40625 C 417.070312 165.300781 417.335938 165.21875 417.605469 165.164062 C 417.878906 165.109375 418.152344 165.085938 418.429688 165.085938 C 418.707031 165.085938 418.980469 165.109375 419.25 165.164062 C 419.523438 165.21875 419.785156 165.300781 420.042969 165.40625 C 420.296875 165.511719 420.539062 165.640625 420.769531 165.792969 C 421 165.949219 421.214844 166.125 421.410156 166.320312 C 421.605469 166.515625 421.78125 166.726562 421.933594 166.957031 C 422.085938 167.1875 422.21875 167.429688 422.324219 167.6875 C 422.429688 167.941406 422.507812 168.207031 422.5625 168.476562 C 422.617188 168.75 422.644531 169.023438 422.644531 169.300781 C 422.644531 244.753906 439.316406 292.636719 472.195312 311.621094 C 505.078125 330.605469 554.882812 321.101562 620.226562 283.375 C 620.46875 283.234375 620.71875 283.121094 620.980469 283.03125 C 621.242188 282.941406 621.511719 282.878906 621.785156 282.84375 C 622.0625 282.804688 622.335938 282.796875 622.613281 282.8125 C 622.890625 282.832031 623.160156 282.875 623.429688 282.949219 C 623.695312 283.019531 623.957031 283.117188 624.203125 283.238281 C 624.453125 283.363281 624.6875 283.507812 624.90625 283.675781 C 625.125 283.84375 625.328125 284.03125 625.511719 284.242188 C 625.695312 284.449219 625.855469 284.671875 625.992188 284.914062 C 626.132812 285.152344 626.246094 285.40625 626.332031 285.667969 C 626.421875 285.929688 626.484375 286.199219 626.523438 286.472656 C 626.558594 286.746094 626.566406 287.023438 626.546875 287.300781 C 626.53125 287.574219 626.484375 287.847656 626.414062 288.117188 C 626.339844 288.382812 626.242188 288.640625 626.121094 288.890625 C 625.996094 289.136719 625.851562 289.371094 625.683594 289.589844 C 625.515625 289.8125 625.324219 290.011719 625.117188 290.195312 C 624.90625 290.375 624.683594 290.535156 624.441406 290.675781 C 559.097656 328.402344 525.964844 366.78125 525.964844 404.75 C 525.964844 442.71875 559.097656 481.101562 624.441406 518.828125 C 624.683594 518.964844 624.90625 519.125 625.117188 519.308594 C 625.324219 519.488281 625.515625 519.691406 625.683594 519.910156 C 625.851562 520.128906 625.996094 520.363281 626.121094 520.613281 C 626.242188 520.859375 626.339844 521.117188 626.414062 521.386719 C 626.484375 521.652344 626.53125 521.925781 626.546875 522.203125 C 626.566406 522.480469 626.558594 522.753906 626.523438 523.027344 C 626.484375 523.304688 626.421875 523.574219 626.335938 523.835938 C 626.246094 524.097656 626.132812 524.347656 625.992188 524.589844 C 625.855469 524.828125 625.695312 525.054688 625.511719 525.261719 C 625.328125 525.46875 625.125 525.65625 624.90625 525.828125 C 624.6875 525.996094 624.453125 526.140625 624.203125 526.261719 C 623.957031 526.386719 623.695312 526.480469 623.429688 526.554688 C 623.160156 526.625 622.890625 526.667969 622.613281 526.6875 C 622.335938 526.707031 622.0625 526.695312 621.785156 526.660156 C 621.511719 526.621094 621.242188 526.558594 620.980469 526.46875 C 620.71875 526.382812 620.46875 526.265625 620.226562 526.128906 C 554.882812 488.402344 505.078125 478.898438 472.195312 497.878906 C 439.316406 516.867188 422.644531 564.75 422.644531 640.203125 C 422.644531 640.480469 422.617188 640.753906 422.5625 641.023438 C 422.507812 641.296875 422.429688 641.558594 422.324219 641.816406 C 422.21875 642.070312 422.085938 642.3125 421.933594 642.542969 C 421.78125 642.773438 421.605469 642.988281 421.410156 643.183594 C 421.214844 643.378906 421 643.554688 420.769531 643.707031 C 420.539062 643.859375 420.296875 643.992188 420.042969 644.097656 C 419.785156 644.203125 419.523438 644.28125 419.25 644.335938 C 418.980469 644.390625 418.707031 644.417969 418.429688 644.417969 Z M 326.28125 479.996094 C 333.726562 479.835938 341.058594 480.652344 348.285156 482.449219 C 355.507812 484.242188 362.371094 486.953125 368.875 490.578125 C 394.597656 505.429688 411.179688 535.742188 418.429688 580.984375 C 425.679688 535.742188 442.261719 505.429688 467.984375 490.578125 C 493.703125 475.730469 528.242188 476.523438 571.050781 492.867188 C 535.496094 463.964844 517.535156 434.453125 517.535156 404.75 C 517.535156 375.050781 535.496094 345.535156 571.050781 316.632812 C 528.246094 332.976562 493.703125 333.773438 467.984375 318.921875 C 442.261719 304.070312 425.679688 273.761719 418.429688 228.515625 C 411.179688 273.761719 394.597656 304.070312 368.875 318.921875 C 343.152344 333.769531 308.613281 332.976562 265.804688 316.632812 C 301.363281 345.535156 319.320312 375.050781 319.320312 404.75 C 319.320312 434.453125 301.363281 463.96875 265.804688 492.867188 C 288.261719 484.292969 308.421875 480.003906 326.28125 479.996094 Z M 326.28125 479.996094 "/></g></g></svg>